mtllib ./Wall_Front_360''x130''.mtl
g Wall_Front_360''x130''
v -1.92 0.84 0.19
v -1.92 -0.8358001 0.06299999
v -1.92 -0.8358001 0.19
v -1.92 0.84 0.06299999
v -4.574 1.043 0.191
v -4.574 1.043 0.064
v -4.574 1.7542 0.191
v -4.574 1.7542 0.064
v -4.574 -0.8358001 0.19
v -4.574 -0.8358001 0.06299999
v -4.574 -1.547 0.19
v -4.574 -1.547 0.06299999
v 4.57 1.043 0.064
v 4.57 1.043 0.191
v 4.57 1.7542 0.064
v 4.57 1.7542 0.191
v 4.57 -0.8358001 0.06299999
v 4.57 -0.8358001 0.19
v 4.57 -1.547 0.06299999
v 4.57 -1.547 0.19
v 1.916 -0.8358001 0.19
v 1.916 0.84 0.06299999
v 1.916 0.84 0.19
v 1.916 -0.8358001 0.06299999
v -1.92 0.84 0.06299999
v 1.916 0.84 0.19
v 1.916 0.84 0.06299999
v -1.92 0.84 0.19
v 1.916 -0.8358001 0.19
v -1.92 -0.8358001 0.06299999
v 1.916 -0.8358001 0.06299999
v -1.92 -0.8358001 0.19
v 2.043 1.7544 0.06299999
v 4.443 1.043 0.064
v 4.443 1.7542 0.064
v 2.043 0.84 0.06299999
v 4.57 1.043 0.064
v 4.57 1.7542 0.064
v 4.443 -0.8358001 0.06299999
v 4.57 -0.8358001 0.06299999
v 4.443 -1.547 0.06299999
v 4.57 -1.547 0.06299999
v 2.043 -0.8358001 0.06299999
v 2.043 -1.547 0.06299999
v 1.916 -0.8358001 0.06299999
v 1.916 0.84 0.06299999
v 1.916 -1.547 0.06299999
v 1.916 1.7544 0.06299999
v -1.92 1.7544 0.06299999
v -1.92 0.84 0.06299999
v -1.92 -0.8358001 0.06299999
v -1.92 -1.547 0.06299999
v -4.447 -0.8358001 0.06299999
v -2.047 -1.547 0.06299999
v -2.047 -0.8358001 0.06299999
v -4.447 -1.547 0.06299999
v -2.047 0.84 0.06299999
v -2.047 1.7544 0.06299999
v -4.447 1.043 0.064
v -4.447 1.7542 0.064
v -4.574 1.043 0.064
v -4.574 1.7542 0.064
v -4.574 -0.8358001 0.06299999
v -4.574 -1.547 0.06299999
v 4.57 1.7542 0.191
v 4.443 1.7542 0.191
v 4.57 1.7542 0.064
v 4.443 1.7542 0.064
v 2.043 1.7544 0.06299999
v 2.043 1.7544 0.19
v -1.92 1.7544 0.19
v 1.916 1.7544 0.06299999
v 1.916 1.7544 0.19
v -1.92 1.7544 0.06299999
v -2.047 1.7544 0.19
v -2.047 1.7544 0.06299999
v -4.447 1.7542 0.064
v -4.447 1.7542 0.191
v -4.574 1.7542 0.191
v -4.574 1.7542 0.064
v 4.57 1.043 0.191
v 4.443 1.043 0.191
v 4.57 1.7542 0.191
v 4.443 1.7542 0.191
v 4.57 -0.8358001 0.19
v 4.443 -0.8358001 0.19
v 4.57 -1.547 0.19
v 4.443 -1.547 0.19
v 2.043 0.84 0.19
v 2.043 1.7544 0.19
v 2.043 -0.8358001 0.19
v 2.043 -1.547 0.19
v 1.916 0.84 0.19
v 1.916 1.7544 0.19
v 1.916 -0.8358001 0.19
v 1.916 -1.547 0.19
v -1.92 0.84 0.19
v -1.92 1.7544 0.19
v -1.92 -1.547 0.19
v -1.92 -0.8358001 0.19
v -4.447 -1.547 0.19
v -2.047 -0.8358001 0.19
v -2.047 -1.547 0.19
v -4.447 -0.8358001 0.19
v -2.047 0.84 0.19
v -2.047 1.7544 0.19
v -4.447 1.043 0.191
v -4.447 1.7542 0.191
v -4.574 1.043 0.191
v -4.574 1.7542 0.191
v -4.574 -0.8358001 0.19
v -4.574 -1.547 0.19
v -4.447 -1.547 0.06299999
v -4.574 -1.547 0.06299999
v -4.447 -1.547 0.19
v -4.574 -1.547 0.19
v -2.047 -1.547 0.06299999
v -2.047 -1.547 0.19
v -1.92 -1.547 0.06299999
v -1.92 -1.547 0.19
v 1.916 -1.547 0.06299999
v 1.916 -1.547 0.19
v 2.043 -1.547 0.06299999
v 2.043 -1.547 0.19
v 4.443 -1.547 0.06299999
v 4.443 -1.547 0.19
v 4.57 -1.547 0.06299999
v 4.57 -1.547 0.19

vn 1 0 0
vn 1 0 0
vn 1 0 0
vn 1 0 0
vn -1 0 0
vn -1 0 0
vn -1 0 0
vn -1 0 0
vn -1 0 0
vn -1 0 0
vn -1 0 0
vn -1 0 0
vn 1 0 0
vn 1 0 0
vn 1 0 0
vn 1 0 0
vn 1 0 0
vn 1 0 0
vn 1 0 0
vn 1 0 0
vn -1 0 0
vn -1 0 0
vn -1 0 0
vn -1 0 0
vn 1.553823E-08 -0.9999999 0
vn 1.553823E-08 -0.9999999 0
vn 1.553823E-08 -0.9999999 0
vn 1.553823E-08 -0.9999999 0
vn 0 0.9999999 0
vn 0 0.9999999 0
vn 0 0.9999999 0
vn 0 0.9999999 0
vn 0.0004046236 0 -0.9999999
vn 0.0003777573 0.0002891479 -0.9999999
vn 0.0003767905 0 -0.9999999
vn 0.0002275401 0.0002108317 -0.9999999
vn 0 0.0003861012 -0.9999999
vn 0 0 -1
vn 0.000153803 0.000243581 -1
vn 0 0.0003861011 -0.9999999
vn 0 0 -1
vn 0 0 -1
vn 0 0 -1
vn 0 0 -1
vn 0 0 -1
vn 0 0 -1
vn 0 0 -0.9999999
vn 0 0 -0.9999999
vn 0 0 -1
vn 0 0 -1
vn 0 0 -1
vn 0 0 -1
vn 0 0.0003062364 -1
vn 0 0 -1
vn -0.0001545343 0.0002213165 -1
vn 0 0 -0.9999999
vn -0.0004000582 0 -1
vn -0.0003767904 0 -0.9999999
vn -0.0002190761 0.000243581 -0.9999999
vn -0.0004072395 0 -1
vn 0 0.0003861012 -0.9999999
vn 0 0 -1
vn 0 0.0003861011 -0.9999999
vn 0 0 -1
vn 0 1 0
vn 7.915837E-05 1 0
vn 0 1 0
vn 7.915837E-05 1 0
vn 7.915838E-05 1 0
vn 7.915837E-05 1 0
vn 0 1 0
vn 0 1 0
vn 0 1 0
vn 0 1 0
vn -7.915836E-05 1 0
vn -7.915836E-05 1 0
vn -7.915837E-05 1 0
vn -7.915836E-05 0.9999999 0
vn 0 1 0
vn 0 1 0
vn 0 -0.0003861012 0.9999999
vn -0.0002190761 -0.000243581 0.9999999
vn 0 0 1
vn -0.0004072395 0 0.9999999
vn 0 -0.0003861011 0.9999999
vn 0 -0.0003062365 1
vn 0 0 1
vn 0 0 1
vn -0.0004000582 0 1
vn -0.0003767905 0 0.9999999
vn -0.0001545343 -0.0002213165 1
vn 0 0 1
vn 0 0 1
vn 0 0 1
vn 0 0 1
vn 0 0 1
vn 0 0 1
vn 0 0 1
vn 0 0 0.9999999
vn 0 0 1
vn 0 0 1
vn 0 0 1
vn 0 0 1
vn 0.000153803 -0.000243581 1
vn 0.0002275401 -0.0002108317 0.9999999
vn 0.0004046236 0 0.9999999
vn 0.0003777573 -0.0002891479 0.9999999
vn 0.0003767905 0 1
vn 0 -0.0003861012 0.9999999
vn 0 0 1
vn 0 -0.0003861011 0.9999999
vn 0 0 1
vn 0 -0.9999999 0
vn 0 -1 0
vn 0 -0.9999999 0
vn 0 -1 0
vn 0 -1 0
vn 0 -1 0
vn 0 -1 0
vn 0 -1 0
vn 0 -1 0
vn 0 -1 0
vn 0 -1 0
vn 0 -1 0
vn 0 -1 0
vn 0 -1 0
vn 0 -1 0
vn 0 -1 0

vt 0 1.6758
vt 0.127 0
vt 0 0
vt 0.127 1.6758
vt 0.128 2.59
vt 0.001000002 2.59
vt 0.128 3.3012
vt 0.001000002 3.3012
vt 0.127 0.7112
vt 0 0.7112
vt 0.127 0
vt 0 0
vt 0.127 2.59
vt 0 2.59
vt 0.127 3.3012
vt 0 3.3012
vt 0.128 0.7112
vt 0.001000002 0.7112
vt 0.128 0
vt 0.001000002 0
vt 0.127 0
vt 0 1.6758
vt 0.127 1.6758
vt 0 0
vt 0 0
vt 3.836 0.127
vt 3.836 0
vt 0 0.127
vt 0 0.127
vt 3.836 0
vt 0 0
vt 3.836 0.127
vt 2.526999 3.3014
vt 0.1269994 2.59
vt 0.1269994 3.3012
vt 2.526999 2.387
vt -4.768372E-07 2.59
vt -4.768372E-07 3.3012
vt 0.1269999 0.7112
vt 0 0.7112
vt 0.1269999 0
vt 0 0
vt 2.526999 0.7112
vt 2.526999 0
vt 2.653999 0.7112
vt 2.653999 2.387
vt 2.653999 0
vt 2.653999 3.3014
vt 6.489999 3.3014
vt 6.489999 2.387
vt 6.489999 0.7112
vt 6.489999 0
vt 9.016999 0.7112
vt 6.616999 0
vt 6.616999 0.7112
vt 9.016999 0
vt 6.616999 2.387
vt 6.616999 3.3014
vt 9.016999 2.59
vt 9.016999 3.3012
vt 9.143999 2.59
vt 9.143999 3.3012
vt 9.143999 0.7112
vt 9.143999 0
vt 0 0.128
vt 0.1269999 0.128
vt 0 0.001000002
vt 0.1269999 0.001000002
vt 2.527 0
vt 2.527 0.127
vt 6.49 0.127
vt 2.654 0
vt 2.654 0.127
vt 6.49 0
vt 6.617 0.127
vt 6.617 0
vt 9.017 0.001000002
vt 9.017 0.128
vt 9.144 0.128
vt 9.144 0.001000002
vt 9.144 2.59
vt 9.017 2.59
vt 9.144 3.3012
vt 9.017 3.3012
vt 9.144 0.7112
vt 9.017 0.7112
vt 9.144 0
vt 9.017 0
vt 6.617001 2.387
vt 6.617001 3.3014
vt 6.617001 0.7112
vt 6.617001 0
vt 6.490001 2.387
vt 6.490001 3.3014
vt 6.490001 0.7112
vt 6.490001 0
vt 2.654 2.387
vt 2.654 3.3014
vt 2.654 0
vt 2.654 0.7112
vt 0.1270003 0
vt 2.527 0.7112
vt 2.527 0
vt 0.1270003 0.7112
vt 2.527 2.387
vt 2.527 3.3014
vt 0.1270003 2.59
vt 0.1270003 3.3012
vt 4.768372E-07 2.59
vt 4.768372E-07 3.3012
vt 4.768372E-07 0.7112
vt 4.768372E-07 0
vt 0.1270003 0
vt 4.768372E-07 0
vt 0.1270003 0.127
vt 4.768372E-07 0.127
vt 2.527 0
vt 2.527 0.127
vt 2.654 0
vt 2.654 0.127
vt 6.490001 0
vt 6.490001 0.127
vt 6.617001 0
vt 6.617001 0.127
vt 9.017 0
vt 9.017 0.127
vt 9.144 0
vt 9.144 0.127

usemtl Default_Prototype
usemap Default_Prototype
f 2/2/2 1/1/1 3/3/3
f 4/4/4 1/1/1 2/2/2
f 6/6/6 5/5/5 7/7/7
f 8/8/8 6/6/6 7/7/7
f 9/9/9 6/6/6 10/10/10
f 5/5/5 6/6/6 9/9/9
f 12/12/12 11/11/11 9/9/9
f 10/10/10 12/12/12 9/9/9
f 14/14/14 13/13/13 15/15/15
f 16/16/16 14/14/14 15/15/15
f 14/14/14 17/17/17 13/13/13
f 18/18/18 17/17/17 14/14/14
f 20/20/20 19/19/19 17/17/17
f 18/18/18 20/20/20 17/17/17
f 22/22/22 21/21/21 23/23/23
f 24/24/24 21/21/21 22/22/22
f 26/26/26 25/25/25 27/27/27
f 28/28/28 25/25/25 26/26/26
f 30/30/30 29/29/29 31/31/31
f 32/32/32 29/29/29 30/30/30
f 34/34/34 33/33/33 35/35/35
f 36/36/36 33/33/33 34/34/34
f 37/37/37 34/34/34 35/35/35
f 38/38/38 37/37/37 35/35/35
f 39/39/39 37/37/37 40/40/40
f 34/34/34 37/37/37 39/39/39
f 42/42/42 41/41/41 39/39/39
f 40/40/40 42/42/42 39/39/39
f 36/36/36 39/39/39 43/43/43
f 34/34/34 39/39/39 36/36/36
f 43/43/43 41/41/41 44/44/44
f 39/39/39 41/41/41 43/43/43
f 36/36/36 45/45/45 46/46/46
f 43/43/43 45/45/45 36/36/36
f 44/44/44 47/47/47 45/45/45
f 43/43/43 44/44/44 45/45/45
f 36/36/36 46/46/46 48/48/48
f 33/33/33 36/36/36 48/48/48
f 46/46/46 49/49/49 48/48/48
f 50/50/50 49/49/49 46/46/46
f 47/47/47 51/51/51 45/45/45
f 52/52/52 51/51/51 47/47/47
f 54/54/54 53/53/53 55/55/55
f 56/56/56 53/53/53 54/54/54
f 50/50/50 55/55/55 57/57/57
f 51/51/51 55/55/55 50/50/50
f 50/50/50 57/57/57 58/58/58
f 49/49/49 50/50/50 58/58/58
f 52/52/52 54/54/54 55/55/55
f 51/51/51 52/52/52 55/55/55
f 55/55/55 59/59/59 57/57/57
f 53/53/53 59/59/59 55/55/55
f 57/57/57 60/60/60 58/58/58
f 59/59/59 60/60/60 57/57/57
f 59/59/59 61/61/61 62/62/62
f 60/60/60 59/59/59 62/62/62
f 63/63/63 59/59/59 53/53/53
f 61/61/61 59/59/59 63/63/63
f 56/56/56 64/64/64 63/63/63
f 53/53/53 56/56/56 63/63/63
f 66/66/66 65/65/65 67/67/67
f 68/68/68 66/66/66 67/67/67
f 69/69/69 66/66/66 68/68/68
f 70/70/70 66/66/66 69/69/69
f 72/72/72 71/71/71 73/73/73
f 74/74/74 71/71/71 72/72/72
f 73/73/73 70/70/70 69/69/69
f 72/72/72 73/73/73 69/69/69
f 75/75/75 71/71/71 74/74/74
f 76/76/76 75/75/75 74/74/74
f 75/75/75 77/77/77 78/78/78
f 76/76/76 77/77/77 75/75/75
f 79/79/79 78/78/78 77/77/77
f 80/80/80 79/79/79 77/77/77
f 82/82/82 81/81/81 83/83/83
f 84/84/84 82/82/82 83/83/83
f 85/85/85 82/82/82 86/86/86
f 81/81/81 82/82/82 85/85/85
f 88/88/88 87/87/87 85/85/85
f 86/86/86 88/88/88 85/85/85
f 89/89/89 84/84/84 90/90/90
f 82/82/82 84/84/84 89/89/89
f 91/91/91 82/82/82 89/89/89
f 86/86/86 82/82/82 91/91/91
f 92/92/92 86/86/86 91/91/91
f 88/88/88 86/86/86 92/92/92
f 93/93/93 89/89/89 90/90/90
f 94/94/94 93/93/93 90/90/90
f 91/91/91 93/93/93 95/95/95
f 89/89/89 93/93/93 91/91/91
f 96/96/96 92/92/92 91/91/91
f 95/95/95 96/96/96 91/91/91
f 94/94/94 97/97/97 93/93/93
f 98/98/98 97/97/97 94/94/94
f 95/95/95 99/99/99 96/96/96
f 100/100/100 99/99/99 95/95/95
f 102/102/102 101/101/101 103/103/103
f 104/104/104 101/101/101 102/102/102
f 105/105/105 97/97/97 98/98/98
f 106/106/106 105/105/105 98/98/98
f 100/100/100 105/105/105 102/102/102
f 97/97/97 105/105/105 100/100/100
f 103/103/103 99/99/99 100/100/100
f 102/102/102 103/103/103 100/100/100
f 105/105/105 104/104/104 102/102/102
f 107/107/107 104/104/104 105/105/105
f 107/107/107 106/106/106 108/108/108
f 105/105/105 106/106/106 107/107/107
f 109/109/109 107/107/107 108/108/108
f 110/110/110 109/109/109 108/108/108
f 104/104/104 109/109/109 111/111/111
f 107/107/107 109/109/109 104/104/104
f 112/112/112 101/101/101 104/104/104
f 111/111/111 112/112/112 104/104/104
f 114/114/114 113/113/113 115/115/115
f 116/116/116 114/114/114 115/115/115
f 115/115/115 117/117/117 118/118/118
f 113/113/113 117/117/117 115/115/115
f 117/117/117 119/119/119 120/120/120
f 118/118/118 117/117/117 120/120/120
f 120/120/120 121/121/121 122/122/122
f 119/119/119 121/121/121 120/120/120
f 121/121/121 123/123/123 124/124/124
f 122/122/122 121/121/121 124/124/124
f 125/125/125 124/124/124 123/123/123
f 126/126/126 124/124/124 125/125/125
f 125/125/125 127/127/127 128/128/128
f 126/126/126 125/125/125 128/128/128
